# xmcd CD database file
#
# Track frame offsets:
#	150
#	21894
#	35631
#	66219
#	90781
#	117339
#	148530
#	169273
#	187516
#	216407
#	235400
#	275634
#	302714
#	323445
#
# Disc length: 4614 seconds
#
# Revision: 0
# Processed by: cddbd v1.5.2PL0 Copyright (c) Steve Scherf et al.
# Submitted via: CDex 1.70beta2
#
DISCID=be12040e
DTITLE=Various Artist - More Saxes
DYEAR=2005
DGENRE=Jazz
TTITLE0=Harry Carney - Take The 'A' Train
TTITLE1=Serge Chaloff - The Goof and I
TTITLE2=Gerry Mulligan - Elevation
TTITLE3=Bob Gordon - Walkin'
TTITLE4=Pepper Adams - All Too Soon
TTITLE5=Cecil Payne - Blues For Strayhorn
TTITLE6=Sahib Shihab - Ghana
TTITLE7=Tony Scott - Sophisticated Lady
TTITLE8=Charles Davis - Half and Half
TTITLE9=John Surman - Arjen's Bag
TTITLE10=Ronnie Ross - Tum
TTITLE11=Howard Johnson - O Raggedy Man
TTITLE12=Scott Robinson - You Rascal You
TTITLE13=Herwig Gradischnig - I Let A Song Go Out of My Heart
EXTD=YEAR: 2005
EXTT0=
EXTT1=
EXTT2=
EXTT3=
EXTT4=
EXTT5=
EXTT6=
EXTT7=
EXTT8=
EXTT9=
EXTT10=
EXTT11=
EXTT12=
EXTT13=
PLAYORDER=
